<?xml version="1.0" encoding="UTF-8"?>
<svg version="1.1" xmlns="http://www.w3.org/2000/svg" width="1024" height="1024">
<path d="M0 0 C337.92 0 675.84 0 1024 0 C1024 337.92 1024 675.84 1024 1024 C686.08 1024 348.16 1024 0 1024 C0 686.08 0 348.16 0 0 Z " fill="#FCFDFD" transform="translate(0,0)"/>
<path d="M0 0 C9.04858245 -0.75538788 16.30290937 4.08543465 23.88671875 8.37890625 C25.27987305 9.1675708 25.27987305 9.1675708 26.70117188 9.97216797 C32.69807689 13.38550681 38.66634281 16.84675807 44.62704468 20.32284546 C50.47793254 23.73109687 56.35979242 27.08424651 62.243927 30.43466187 C72.58490108 36.32377047 82.88447661 42.28001816 93.15185547 48.29663086 C99.94254878 52.26759444 106.77816124 56.15157951 113.63671875 60.00390625 C117.39052022 62.12225139 121.14017165 64.24775859 124.88671875 66.37890625 C125.82725098 66.91322266 126.7677832 67.44753906 127.73681641 67.99804688 C130.48344501 69.56809136 133.2177777 71.1576161 135.94921875 72.75390625 C136.76422852 73.21748535 137.57923828 73.68106445 138.41894531 74.15869141 C145.61484489 78.41219342 150.76185255 83.5070548 153.88671875 91.37890625 C154.34284432 94.92727936 154.37501719 98.45295018 154.3984375 102.02734375 C154.4253643 103.54613632 154.4253643 103.54613632 154.45283508 105.09561157 C154.50681833 108.31500136 154.54079582 111.53424388 154.57421875 114.75390625 C154.60740235 116.94272877 154.64189297 119.13153189 154.67773438 121.3203125 C154.76253777 126.673045 154.83093824 132.02579685 154.88671875 137.37890625 C155.54406006 136.5173291 156.20140137 135.65575195 156.87866211 134.76806641 C161.29245151 128.99692783 165.70660794 123.26097545 170.44921875 117.75390625 C171.37571724 116.67118626 172.30148729 115.58784254 173.2265625 114.50390625 C173.89727783 113.71886719 173.89727783 113.71886719 174.58154297 112.91796875 C178.08075553 108.79169939 181.47292845 104.57578823 184.88671875 100.37890625 C186.38614967 98.54510746 187.88615333 96.71177682 189.38671875 94.87890625 C190.11761719 93.98558594 190.84851563 93.09226562 191.6015625 92.171875 C195.36328125 87.57421875 199.125 82.9765625 202.88671875 78.37890625 C199.84480344 78.68912138 196.80320141 79.00200078 193.76171875 79.31640625 C192.90578125 79.40341797 192.04984375 79.49042969 191.16796875 79.58007812 C186.70726434 80.04330512 182.30761651 80.61375087 177.88671875 81.37890625 C174.98596173 81.74021051 172.87503378 81.66809803 169.88671875 81.37890625 C167.32421875 79.31640625 167.32421875 79.31640625 165.88671875 76.37890625 C165.88671875 72.80232997 165.92163047 70.45919074 168.359375 67.73046875 C172.20177318 65.67564685 176.02473477 65.66269799 180.32421875 65.37890625 C187.9252708 64.78037731 195.41466788 63.91948725 202.94921875 62.75390625 C222.61940437 59.8465013 222.61940437 59.8465013 227.49584961 63.14233398 C231.52305598 67.35998548 230.57774968 73.30030188 230.515625 78.7578125 C230.51803696 79.96203354 230.52044891 81.16625458 230.52293396 82.40696716 C230.52195547 84.94964902 230.50856176 87.49235217 230.48364258 90.03491211 C230.44931124 93.93090985 230.46299199 97.82464291 230.48242188 101.72070312 C230.47552427 104.19141592 230.46585268 106.66212286 230.453125 109.1328125 C230.45808487 110.29953995 230.46304474 111.4662674 230.46815491 112.66835022 C230.44440041 114.29540138 230.44440041 114.29540138 230.42016602 115.95532227 C230.41396744 116.90842789 230.40776886 117.86153351 230.40138245 118.84352112 C229.73428928 122.12981879 228.491493 123.3279106 225.88671875 125.37890625 C222.88671875 125.94140625 222.88671875 125.94140625 219.88671875 125.37890625 C216.89835806 122.54198731 215.95308475 120.90458917 215.43261719 116.78198242 C215.43324412 115.41178338 215.45546965 114.04147184 215.49609375 112.671875 C215.50458344 111.58378288 215.50458344 111.58378288 215.51324463 110.47370911 C215.53552776 108.17058617 215.58570388 105.86905401 215.63671875 103.56640625 C215.65679441 101.99937153 215.67504332 100.43231226 215.69140625 98.86523438 C215.73536538 95.03585106 215.80433252 91.20764779 215.88671875 87.37890625 C215.22671875 87.37890625 214.56671875 87.37890625 213.88671875 87.37890625 C213.62375 87.95253906 213.36078125 88.52617187 213.08984375 89.1171875 C211.8089337 91.52513203 210.35884924 93.45118076 208.63671875 95.56640625 C207.56550781 96.88511719 207.56550781 96.88511719 206.47265625 98.23046875 C205.61124811 99.28041666 204.7492175 100.32985405 203.88671875 101.37890625 C203.13503418 102.29494629 203.13503418 102.29494629 202.36816406 103.22949219 C198.83017578 107.53909684 195.28308362 111.84114105 191.73339844 116.14111328 C188.78164693 119.71802422 185.83435131 123.29860097 182.88671875 126.87890625 C181.73178789 128.28126405 180.5768399 129.68360774 179.421875 131.0859375 C176.97087352 134.06210461 174.52043868 137.03873726 172.0703125 140.015625 C171.44318359 140.77746094 170.81605469 141.53929687 170.16992188 142.32421875 C168.97706682 143.77331674 167.78434892 145.22252764 166.59179688 146.671875 C163.37001378 150.58540512 160.13603317 154.48820015 156.88671875 158.37890625 C157.35078125 159.52359375 157.35078125 159.52359375 157.82421875 160.69140625 C160.12923258 166.52173534 161.39822308 172.6509523 158.95703125 178.671875 C158.2338266 180.00107527 157.47241212 181.31063728 156.6640625 182.58984375 C155.62360928 184.98445467 156.05402442 185.91997644 156.88671875 188.37890625 C158.22445886 190.67027513 158.22445886 190.67027513 159.90625 193.00390625 C160.51662109 193.8753125 161.12699219 194.74671875 161.75585938 195.64453125 C162.39716797 196.546875 163.03847656 197.44921875 163.69921875 198.37890625 C164.32892578 199.28125 164.95863281 200.18359375 165.60742188 201.11328125 C169.81569982 207.11267489 169.81569982 207.11267489 174.88671875 212.37890625 C176.79256071 212.17514447 176.79256071 212.17514447 178.88671875 211.37890625 C185.45488549 210.60618075 189.70712723 212.55989584 194.88671875 216.37890625 C198.82060341 219.72432045 200.6474283 222.63408003 201.35546875 227.796875 C201.53658893 234.95866879 201.24092159 240.6590794 196.23828125 246.20703125 C190.7166725 250.75423846 186.49486138 252.89286127 179.22265625 252.6875 C172.50689795 251.80030116 168.19009548 248.16968595 164.015625 243.0625 C161.51397885 239.33167132 161.7219031 235.73430137 161.69921875 231.37890625 C161.68503906 230.14140625 161.67085937 228.90390625 161.65625 227.62890625 C161.88671875 224.37890625 161.88671875 224.37890625 163.88671875 221.37890625 C163.64437628 216.79003425 161.38808631 213.76977051 158.82421875 210.06640625 C158.09074219 208.99777344 157.35726563 207.92914062 156.6015625 206.828125 C156.03566406 206.01988281 155.46976563 205.21164062 154.88671875 204.37890625 C154.88458122 205.26974159 154.88458122 205.26974159 154.88240051 206.17857361 C154.86262435 212.39270468 154.80818192 218.60586389 154.73413086 224.81958008 C154.7110177 227.13461317 154.69657094 229.44975042 154.69116211 231.76489258 C154.68182403 235.1043336 154.64072448 238.44215136 154.59375 241.78125 C154.59768265 242.80661362 154.6016153 243.83197723 154.60566711 244.88841248 C154.45186591 252.56424004 152.56913078 258.3739181 147.30717468 264.09681702 C142.23657335 268.90663707 135.80718833 272.10393841 129.76171875 275.50390625 C128.59675461 276.1665101 127.43220967 276.82985147 126.26806641 277.49389648 C123.91926776 278.83218246 121.56823357 280.16638638 119.21484375 281.49658203 C114.5561314 284.13146115 109.90876049 286.78601811 105.26171875 289.44140625 C104.4200415 289.92134033 103.57836426 290.40127441 102.71118164 290.89575195 C96.1842555 294.6219703 89.68782557 298.39891835 83.19921875 302.19140625 C71.6039165 308.96857347 59.98154176 315.69748539 48.33837891 322.39208984 C45.30742614 324.1367421 42.27890685 325.88550312 39.25125122 327.63586426 C36.72324005 329.09609372 34.19298974 330.55241138 31.66223145 332.00787354 C30.45537494 332.70291612 29.24937213 333.39944355 28.04431152 334.09759521 C7.14177803 346.20251079 7.14177803 346.20251079 -4.11328125 344.37890625 C-8.41498206 342.86205307 -12.19602002 340.69938162 -16.11328125 338.37890625 C-17.31989624 337.67896942 -18.52694799 336.97978512 -19.734375 336.28125 C-22.53819358 334.64854925 -25.32980215 332.99652036 -28.1171875 331.3359375 C-33.93743798 327.87701189 -39.80726702 324.50507477 -45.67578125 321.12890625 C-54.13012798 316.26147466 -62.56844369 311.36827353 -70.98828125 306.44140625 C-79.00236265 301.75608784 -87.03992355 297.11348645 -95.10153198 292.51046753 C-96.85636382 291.50785847 -98.61003043 290.50323601 -100.36352539 289.49829102 C-105.86237239 286.35069028 -111.37142893 283.22564428 -116.91952515 280.16549683 C-119.47825941 278.75236155 -122.03055012 277.32780829 -124.58239746 275.90228271 C-125.79204033 275.23073507 -127.00477561 274.56472158 -128.2208252 273.90484619 C-137.99813597 268.59691893 -144.51919937 264.16115188 -148.11328125 253.37890625 C-148.11328125 247.43890625 -148.11328125 241.49890625 -148.11328125 235.37890625 C-118.41328125 235.37890625 -88.71328125 235.37890625 -58.11328125 235.37890625 C-58.77328125 233.39890625 -59.43328125 231.41890625 -60.11328125 229.37890625 C-60.34375 226.45703125 -60.34375 226.45703125 -60.30078125 223.62890625 C-60.29111328 222.21351563 -60.29111328 222.21351563 -60.28125 220.76953125 C-60.11328125 218.37890625 -60.11328125 218.37890625 -59.11328125 216.37890625 C-88.81328125 216.04890625 -118.51328125 215.71890625 -149.11328125 215.37890625 C-149.11328125 208.77890625 -149.11328125 202.17890625 -149.11328125 195.37890625 C-155.12386157 195.45346007 -161.13310158 195.53678231 -167.14306641 195.64135742 C-169.18140364 195.67431681 -171.21982579 195.70243573 -173.25830078 195.7253418 C-202.83256468 196.06652746 -223.59212319 203.35728281 -244.52075195 224.4934082 C-247.66367786 227.72674318 -250.70179372 231.02377742 -253.65234375 234.43359375 C-256.9592008 238.25296467 -260.45295662 241.8347805 -264.05078125 245.37890625 C-264.63923828 245.96285156 -265.22769531 246.54679688 -265.83398438 247.1484375 C-267.25807918 248.5609543 -268.68533375 249.97028435 -270.11328125 251.37890625 C-275.03264027 247.26270789 -279.63976081 242.97480263 -284.11328125 238.37890625 C-282.62914395 234.89236149 -280.65114073 232.73699553 -277.92578125 230.12890625 C-275.11818615 227.43440167 -272.47562551 224.67636112 -269.9375 221.73046875 C-258.36080143 208.39131951 -245.89014338 194.70936147 -230.11328125 186.37890625 C-229.48679687 186.04761719 -228.8603125 185.71632813 -228.21484375 185.375 C-209.92432218 176.00937149 -191.7444718 174.79989059 -171.48828125 175.12890625 C-169.30600622 175.14902836 -167.12371299 175.16726889 -164.94140625 175.18359375 C-159.66453002 175.22363075 -154.3902546 175.3019949 -149.11328125 175.37890625 C-149.11328125 168.77890625 -149.11328125 162.17890625 -149.11328125 155.37890625 C-154.96358107 155.43038271 -160.81141501 155.4939176 -166.66088867 155.58642578 C-168.64387763 155.61436651 -170.6269724 155.63571234 -172.61010742 155.64990234 C-188.19101675 155.76796935 -201.94912379 156.96367874 -215.92578125 164.50390625 C-216.60447266 164.85066406 -217.28316406 165.19742188 -217.98242188 165.5546875 C-220.68662107 166.95925664 -222.94680609 168.21243109 -225.11328125 170.37890625 C-226.94140625 170.4140625 -226.94140625 170.4140625 -229.11328125 169.37890625 C-230.85002007 167.21373351 -232.36417214 165.13343319 -233.86328125 162.81640625 C-234.27449219 162.20087891 -234.68570313 161.58535156 -235.109375 160.95117188 C-236.12091636 159.43385984 -237.11847914 157.90724539 -238.11328125 156.37890625 C-235.11275762 148.74424058 -225.24779407 145.28083483 -218.23828125 142.12890625 C-205.97337161 137.08576906 -193.53782033 135.2017704 -180.36328125 135.28125 C-179.46456299 135.28266495 -178.56584473 135.2840799 -177.63989258 135.28553772 C-174.7976535 135.29109042 -171.95549612 135.30363388 -169.11328125 135.31640625 C-167.17448031 135.32142737 -165.23567813 135.3259892 -163.296875 135.33007812 C-158.56895438 135.34018916 -153.84120819 135.35977345 -149.11328125 135.37890625 C-149.11328125 129.10890625 -149.11328125 122.83890625 -149.11328125 116.37890625 C-156.3687575 116.42346551 -163.62339687 116.49371902 -170.87841797 116.58642578 C-173.33961274 116.6144195 -175.80089381 116.63573983 -178.26220703 116.64990234 C-204.23346839 116.80819935 -225.92444624 120.02807763 -245.03027344 139.31396484 C-251.70832238 146.19785482 -258.16969545 153.26261584 -264.46533203 160.49682617 C-266.90980599 163.2885965 -269.40835314 166.02793886 -271.92578125 168.75390625 C-272.69281372 169.58571411 -272.69281372 169.58571411 -273.4753418 170.43432617 C-277.49435208 174.76723405 -281.65354065 178.94192315 -285.859375 183.09375 C-289.89143551 187.1817143 -293.57453799 191.57637843 -297.30078125 195.94140625 C-299.11328125 197.37890625 -299.11328125 197.37890625 -300.8671875 197.31640625 C-304.21937333 195.91723303 -306.40304021 193.40256514 -308.86328125 190.81640625 C-309.36988281 190.29626953 -309.87648438 189.77613281 -310.3984375 189.24023438 C-311.6436253 187.95980541 -312.87939627 186.67023071 -314.11328125 185.37890625 C-312.52388699 181.44676324 -309.94985623 179.04870279 -306.92578125 176.12890625 C-303.7781453 173.04977439 -300.66486508 169.97768119 -297.80078125 166.62890625 C-290.82647505 158.48119782 -283.32354802 150.77911424 -275.96484375 142.98046875 C-275.27592041 142.25005371 -274.58699707 141.51963867 -273.87719727 140.76708984 C-272.49831576 139.30568621 -271.11860184 137.84506753 -269.73803711 136.38525391 C-266.15882951 132.59107494 -262.66080549 128.75200731 -259.23828125 124.81640625 C-244.89053568 108.88044869 -222.63877475 97.44054522 -201.06002808 96.20393372 C-197.66715875 96.1491043 -194.27989467 96.15374142 -190.88671875 96.18359375 C-189.04347519 96.18783859 -189.04347519 96.18783859 -187.16299438 96.19216919 C-183.27132067 96.20328728 -179.3798844 96.22837649 -175.48828125 96.25390625 C-172.83594084 96.26394686 -170.1835968 96.27307081 -167.53125 96.28125 C-161.05851391 96.30319918 -154.58591455 96.33659268 -148.11328125 96.37890625 C-148.05296722 95.7568631 -147.9926532 95.13481995 -147.93051147 94.493927 C-147.8469339 93.68011566 -147.76335632 92.86630432 -147.67724609 92.02783203 C-147.59630707 91.22016388 -147.51536804 90.41249573 -147.43197632 89.58035278 C-146.7807945 85.08219105 -144.23775694 82.49517241 -141.11328125 79.37890625 C-134.23912232 74.48809736 -126.79066385 70.41277671 -119.42578125 66.31640625 C-111.38150008 61.80644557 -103.38183622 57.23023203 -95.42578125 52.56640625 C-86.72699928 47.47092715 -77.99588678 42.4349457 -69.23828125 37.44140625 C-60.06230216 32.20750671 -50.89151252 26.96504991 -41.73828125 21.69140625 C-40.67859131 21.08159912 -39.61890137 20.47179199 -38.52709961 19.84350586 C-33.25049248 16.79873071 -27.99638547 13.72197115 -22.7734375 10.5859375 C-21.76651855 9.98289795 -20.75959961 9.3798584 -19.72216797 8.75854492 C-17.82787564 7.62079806 -15.93731983 6.47679763 -14.05126953 5.32543945 C-12.78839111 4.56686646 -12.78839111 4.56686646 -11.5 3.79296875 C-10.76998779 3.34904785 -10.03997559 2.90512695 -9.2878418 2.44775391 C-6.2755313 0.96713245 -3.2725275 0.58675632 0 0 Z " fill="#315C69" transform="translate(517.11328125,308.62109375)"/>
<path d="M0 0 C4.02720637 4.2176515 3.08190007 10.15796789 3.01977539 15.61547852 C3.02218735 16.81969955 3.0245993 18.02392059 3.02708435 19.26463318 C3.02610586 21.80731504 3.01271215 24.35001819 2.98779297 26.89257812 C2.95346163 30.78857586 2.96714238 34.68230893 2.98657227 38.57836914 C2.97967466 41.04908194 2.97000307 43.51978887 2.95727539 45.99047852 C2.96223526 47.15720596 2.96719513 48.32393341 2.9723053 49.52601624 C2.95646896 50.61071701 2.94063263 51.69541779 2.92431641 52.81298828 C2.91501854 54.24264671 2.91501854 54.24264671 2.90553284 55.70118713 C2.23843967 58.9874848 0.99564339 60.18557662 -1.60913086 62.23657227 C-4.60913086 62.79907227 -4.60913086 62.79907227 -7.60913086 62.23657227 C-10.59749155 59.39965333 -11.54276486 57.76225519 -12.06323242 53.63964844 C-12.06260549 52.26944939 -12.04037996 50.89913785 -11.99975586 49.52954102 C-11.99409607 48.80414627 -11.98843628 48.07875153 -11.98260498 47.33137512 C-11.96032185 45.02825219 -11.91014573 42.72672003 -11.85913086 40.42407227 C-11.8390552 38.85703754 -11.82080629 37.28997828 -11.80444336 35.72290039 C-11.76048423 31.89351707 -11.69151709 28.0653138 -11.60913086 24.23657227 C-12.26913086 24.23657227 -12.92913086 24.23657227 -13.60913086 24.23657227 C-13.87209961 24.81020508 -14.13506836 25.38383789 -14.40600586 25.97485352 C-15.6869159 28.38279805 -17.13700037 30.30884678 -18.85913086 32.42407227 C-19.9303418 33.7427832 -19.9303418 33.7427832 -21.02319336 35.08813477 C-21.8846015 36.13808268 -22.74663211 37.18752007 -23.60913086 38.23657227 C-24.11025391 38.84726562 -24.61137695 39.45795898 -25.12768555 40.0871582 C-28.66567383 44.39676286 -32.21276599 48.69880706 -35.76245117 52.9987793 C-38.71420268 56.57569023 -41.6614983 60.15626699 -44.60913086 63.73657227 C-45.76406172 65.13893006 -46.91900971 66.54127375 -48.07397461 67.94360352 C-50.52497609 70.91977063 -52.97541093 73.89640328 -55.42553711 76.87329102 C-56.36623047 78.01604492 -56.36623047 78.01604492 -57.32592773 79.18188477 C-58.51878279 80.63098275 -59.71150069 82.08019366 -60.90405273 83.52954102 C-64.12583583 87.44307114 -67.35981644 91.34586617 -70.60913086 95.23657227 C-70.29975586 95.99969727 -69.99038086 96.76282227 -69.67163086 97.54907227 C-67.36661703 103.37940136 -66.09762653 109.50861832 -68.53881836 115.52954102 C-69.26202301 116.85874128 -70.02343749 118.16830329 -70.83178711 119.44750977 C-71.87224033 121.84212069 -71.44182519 122.77764245 -70.60913086 125.23657227 C-69.27139075 127.52794114 -69.27139075 127.52794114 -67.58959961 129.86157227 C-66.67404297 131.16868164 -66.67404297 131.16868164 -65.73999023 132.50219727 C-64.77802734 133.85571289 -64.77802734 133.85571289 -63.79663086 135.23657227 C-63.16692383 136.13891602 -62.5372168 137.04125977 -61.88842773 137.97094727 C-57.68014979 143.9703409 -57.68014979 143.9703409 -52.60913086 149.23657227 C-50.7032889 149.03281048 -50.7032889 149.03281048 -48.60913086 148.23657227 C-42.04096412 147.46384677 -37.78872238 149.41756185 -32.60913086 153.23657227 C-28.6752462 156.58198647 -26.84842131 159.49174604 -26.14038086 164.65454102 C-25.95926068 171.8163348 -26.25492802 177.51674542 -31.25756836 183.06469727 C-36.77917711 187.61190447 -41.00098823 189.75052729 -48.27319336 189.54516602 C-54.98895166 188.65796718 -59.30575413 185.02735196 -63.48022461 179.92016602 C-65.98187075 176.18933734 -65.77394651 172.59196738 -65.79663086 168.23657227 C-65.81081055 166.99907227 -65.82499023 165.76157227 -65.83959961 164.48657227 C-65.60913086 161.23657227 -65.60913086 161.23657227 -63.60913086 158.23657227 C-63.96878911 152.71259041 -67.29629974 148.91682632 -70.38647461 144.52954102 C-72.60913086 141.23657227 -72.60913086 141.23657227 -74.42553711 137.78735352 C-76.26307493 134.43374777 -77.89798468 131.93524791 -80.60913086 129.23657227 C-85.44511008 127.85539432 -89.74490886 128.0127583 -94.60913086 129.23657227 C-98.53228007 132.39700867 -100.86553186 136.18616049 -103.42163086 140.48657227 C-104.11321289 141.55004883 -104.80479492 142.61352539 -105.51733398 143.70922852 C-109.5365329 149.56744477 -109.5365329 149.56744477 -111.60913086 156.23657227 C-111.13475586 157.06157227 -110.66038086 157.88657227 -110.17163086 158.73657227 C-107.63110966 164.42733975 -107.55704536 170.61668485 -109.30053711 176.61547852 C-111.90972337 182.36878881 -115.67479657 185.86721627 -121.42163086 188.54907227 C-128.05529141 189.9798618 -133.71601417 190.02171761 -139.74975586 186.64282227 C-144.17430782 183.29652247 -147.64229024 178.7538693 -148.60913086 173.23657227 C-149.13402014 168.09954109 -149.33858184 163.81144029 -146.48413086 159.36157227 C-145.86538086 158.33032227 -145.24663086 157.29907227 -144.60913086 156.23657227 C-146.61911218 150.56286526 -151.14796523 145.46024872 -154.54663086 140.54907227 C-155.2755957 139.47850586 -156.00456055 138.40793945 -156.75561523 137.30493164 C-157.45879883 136.28850586 -158.16198242 135.27208008 -158.88647461 134.22485352 C-159.52834717 133.2919751 -160.17021973 132.35909668 -160.83154297 131.39794922 C-162.50143689 128.9770021 -162.50143689 128.9770021 -165.60913086 128.23657227 C-167.50596237 128.29277468 -169.40197133 128.37983088 -171.29663086 128.48657227 C-177.40085755 128.53824045 -181.05043883 127.26672029 -185.60913086 123.23657227 C-190.88680214 117.54224273 -192.18578142 113.03312979 -192.05444336 105.34985352 C-191.24142406 99.66585016 -188.27772437 95.540394 -183.98022461 91.83032227 C-181.61351191 90.16947125 -179.35169555 89.1507605 -176.60913086 88.23657227 C-175.73643555 88.43637695 -174.86374023 88.63618164 -173.96459961 88.84204102 C-169.85113439 89.59778247 -167.60740635 89.6087365 -163.60913086 88.23657227 C-158.45648894 83.17681856 -154.8582086 76.73592839 -151.12475586 70.60668945 C-149.18152549 67.56788783 -147.00505478 64.92751667 -144.60913086 62.23657227 C-145.96566476 58.73815923 -145.96566476 58.73815923 -147.65209961 55.39282227 C-149.76441185 50.63365346 -149.55002005 44.79666612 -147.76928711 39.95141602 C-144.89218751 34.92375713 -140.95865998 30.58556422 -135.60913086 28.23657227 C-129.03564922 27.1683815 -122.15016623 27.24978426 -116.33178711 30.79516602 C-111.90279963 34.5010535 -109.04363774 38.47152847 -108.13647461 44.24438477 C-107.95828065 50.42694035 -108.96924812 54.72725176 -111.60913086 60.23657227 C-111.21775613 63.90829146 -109.31618819 66.39698779 -107.23022461 69.36938477 C-106.55668945 70.34004883 -105.8831543 71.31071289 -105.18920898 72.31079102 C-104.4821582 73.31754883 -103.77510742 74.32430664 -103.04663086 75.36157227 C-101.64532474 77.36126024 -100.2479698 79.36372486 -98.85522461 81.36938477 C-98.23317139 82.25513184 -97.61111816 83.14087891 -96.97021484 84.0534668 C-95.60913086 86.23657227 -95.60913086 86.23657227 -95.60913086 88.23657227 C-91.32540066 88.69260637 -87.7414128 88.50841282 -83.60913086 87.23657227 C-79.21537031 83.43576186 -75.99350783 78.92883579 -72.60913086 74.23657227 C-71.36390799 72.59475117 -70.10480378 70.96439392 -68.84375 69.3347168 C-68.01824391 68.26614593 -67.19712973 67.19416823 -66.38037109 66.11889648 C-62.52044956 61.04603101 -58.40991034 56.20573502 -54.26928711 51.36157227 C-50.30269931 46.71887779 -46.46218958 41.97348675 -42.60913086 37.23657227 C-41.10969994 35.40277347 -39.60969628 33.56944283 -38.10913086 31.73657227 C-37.37823242 30.84325195 -36.64733398 29.94993164 -35.89428711 29.02954102 C-32.13256836 24.43188477 -28.37084961 19.83422852 -24.60913086 15.23657227 C-27.65104617 15.54678739 -30.69264819 15.8596668 -33.73413086 16.17407227 C-34.59006836 16.26108398 -35.44600586 16.3480957 -36.32788086 16.43774414 C-40.78858527 16.90097114 -45.1882331 17.47141688 -49.60913086 18.23657227 C-52.50988788 18.59787652 -54.62081583 18.52576404 -57.60913086 18.23657227 C-60.17163086 16.17407227 -60.17163086 16.17407227 -61.60913086 13.23657227 C-61.60913086 9.65999599 -61.57421914 7.31685676 -59.13647461 4.58813477 C-55.29407643 2.53331286 -51.47111484 2.52036401 -47.17163086 2.23657227 C-39.57057881 1.63804333 -32.08118173 0.77715326 -24.54663086 -0.38842773 C-4.87644523 -3.29583269 -4.87644523 -3.29583269 0 0 Z " fill="#E29D3B" transform="translate(744.609130859375,371.763427734375)"/>
<path d="M0 0 C1.0158316 -0.00029205 2.03166321 -0.00058411 3.07827759 -0.00088501 C6.40041974 0.00049649 9.72233114 0.01600175 13.04443359 0.03173828 C15.36184568 0.03547261 17.67925935 0.0383176 19.99667358 0.04031372 C26.0694827 0.04791712 32.1421948 0.06753713 38.21496582 0.08972168 C44.42243131 0.1102513 50.62991262 0.11933061 56.83740234 0.12939453 C68.99760101 0.15078628 81.15772796 0.18488218 93.31787109 0.22705078 C93.15561035 0.83822754 92.99334961 1.4494043 92.82617188 2.07910156 C92.25667142 4.48566497 92.18517209 6.63067086 92.19287109 9.10205078 C92.19029297 9.92447266 92.18771484 10.74689453 92.18505859 11.59423828 C92.33310055 14.52895243 92.81616772 17.33391129 93.31787109 20.22705078 C92.07553711 20.23069641 90.83320313 20.23434204 89.55322266 20.23809814 C77.78513699 20.27520824 66.01730913 20.33315432 54.24942017 20.41095352 C48.20093783 20.45028606 42.15259799 20.48254398 36.10400391 20.49804688 C30.25530389 20.51330751 24.40699602 20.54791829 18.55847168 20.5953598 C16.33886138 20.61007717 14.11919506 20.61808619 11.89953613 20.61893463 C-11.48783469 20.63684762 -32.20062356 24.19365073 -49.68212891 41.22705078 C-57.0703862 48.6849376 -64.14372508 56.42726496 -71.03417969 64.3449707 C-73.47865365 67.13674104 -75.9772008 69.87608339 -78.49462891 72.60205078 C-79.26166138 73.43385864 -79.26166138 73.43385864 -80.04418945 74.2824707 C-84.06319973 78.61537858 -88.2223883 82.79006768 -92.42822266 86.94189453 C-96.46028317 91.02985883 -100.14338565 95.42452296 -103.86962891 99.78955078 C-105.68212891 101.22705078 -105.68212891 101.22705078 -107.43603516 101.16455078 C-110.78822099 99.76537757 -112.97188786 97.25070967 -115.43212891 94.66455078 C-115.93873047 94.14441406 -116.44533203 93.62427734 -116.96728516 93.08837891 C-118.21247296 91.80794994 -119.44824392 90.51837524 -120.68212891 89.22705078 C-119.09273465 85.29490777 -116.51870389 82.89684732 -113.49462891 79.97705078 C-110.34699296 76.89791892 -107.23371273 73.82582572 -104.36962891 70.47705078 C-97.39532271 62.32934235 -89.89239568 54.62725877 -82.53369141 46.82861328 C-81.84476807 46.09819824 -81.15584473 45.3677832 -80.44604492 44.61523438 C-79.06716342 43.15383074 -77.68744949 41.69321206 -76.30688477 40.23339844 C-72.72767717 36.43921947 -69.22965314 32.60015184 -65.80712891 28.66455078 C-49.26922358 10.29599553 -24.59128863 -0.18880982 0 0 Z " fill="#3F95CB" transform="translate(323.68212890625,404.77294921875)"/>
<path d="M0 0 C1.64051079 -0.002062 1.64051079 -0.002062 3.31416321 -0.00416565 C5.09117363 0.00122726 5.09117363 0.00122726 6.90408325 0.00672913 C8.16317001 0.0065831 9.42225677 0.00643707 10.71949768 0.00628662 C14.15912973 0.00600053 17.59872667 0.01186682 21.03835058 0.01886058 C24.63780888 0.02512546 28.23726805 0.02570039 31.83673096 0.02688599 C38.64702938 0.02999007 45.4573117 0.038191 52.26760304 0.04823548 C60.02333603 0.05942529 67.77906981 0.06491429 75.53480887 0.06993091 C91.48359325 0.0803744 107.43236156 0.09795594 123.38113403 0.12025452 C123.05113403 1.11025452 122.72113403 2.10025452 122.38113403 3.12025452 C122.28672368 4.88906018 122.25123413 6.66143783 122.25613403 8.43275452 C122.25355591 9.35701233 122.25097778 10.28127014 122.24832153 11.23353577 C122.34854821 14.65790135 122.34854821 14.65790135 123.38113403 20.12025452 C93.68113403 20.12025452 63.98113403 20.12025452 33.38113403 20.12025452 C33.38113403 25.40025452 33.38113403 30.68025452 33.38113403 36.12025452 C33.05113403 36.12025452 32.72113403 36.12025452 32.38113403 36.12025452 C32.38113403 30.84025452 32.38113403 25.56025452 32.38113403 20.12025452 C26.94029805 20.16492097 21.50056668 20.23527578 16.06033325 20.32777405 C14.21602246 20.35571328 12.37159794 20.37705986 10.52713013 20.39125061 C-17.56679882 20.6201528 -35.5924207 30.67218275 -55.09713745 50.39271545 C-56.80891276 52.12282859 -58.52863682 53.84472308 -60.24972534 55.56556702 C-65.41634354 60.74924415 -70.51576819 65.94186167 -75.24508667 71.53431702 C-76.64483148 73.15022999 -78.02941444 74.68885504 -79.61886597 76.12025452 C-82.85601008 76.18250729 -83.99523563 74.78330905 -86.41574097 72.61634827 C-87.40787779 71.60436871 -88.39206729 70.58454683 -89.36886597 69.55775452 C-89.87546753 69.0376178 -90.38206909 68.51748108 -90.90402222 67.98158264 C-92.14921002 66.70115368 -93.38498098 65.41157897 -94.61886597 64.12025452 C-93.0215359 60.3029064 -90.47443852 57.53664478 -87.68136597 54.55775452 C-87.19700073 54.03471741 -86.7126355 53.5116803 -86.21359253 52.97279358 C-81.95853438 48.41007467 -77.54275531 44.02286561 -73.10324097 39.63978577 C-71.00228805 37.50910239 -69.04407105 35.34508151 -67.11886597 33.05775452 C-50.6244711 13.95077228 -25.75152707 -0.02509895 0 0 Z " fill="#8DC8B3" transform="translate(335.6188659667969,523.8797454833984)"/>
<path d="M0 0 C1.58852412 0.0074915 3.17705769 0.01317059 4.76559448 0.01715088 C8.87887628 0.03217916 12.99156244 0.07125314 17.10461426 0.1159668 C21.32877553 0.15742239 25.55303624 0.17526745 29.77734375 0.1953125 C38.01589361 0.23777863 46.25396579 0.30573953 54.4921875 0.390625 C54.32992676 1.00180176 54.16766602 1.61297852 54.00048828 2.24267578 C53.43098782 4.64923919 53.3594885 6.79424508 53.3671875 9.265625 C53.36460937 10.08804687 53.36203125 10.91046875 53.359375 11.7578125 C53.50741696 14.69252665 53.99048413 17.49748551 54.4921875 20.390625 C53.65883881 20.39649124 52.82549011 20.40235748 51.96688843 20.40840149 C44.05378281 20.46667768 36.14094904 20.53894909 28.22810936 20.62633991 C24.16153377 20.67077443 20.09505218 20.71008696 16.02832031 20.73706055 C12.09235678 20.76336583 8.15676045 20.80395213 4.22102737 20.85381126 C2.73104093 20.87029839 1.24099125 20.88192419 -0.24907303 20.88823891 C-26.24238848 21.00937192 -45.74398484 29.31429734 -63.9453125 47.515625 C-67.77611069 51.3844036 -71.4840879 55.32796165 -75.046875 59.4453125 C-78.35373205 63.26468342 -81.84748787 66.84649925 -85.4453125 70.390625 C-86.03376953 70.97457031 -86.62222656 71.55851563 -87.22851562 72.16015625 C-88.65261043 73.57267305 -90.079865 74.9820031 -91.5078125 76.390625 C-96.42717152 72.27442664 -101.03429206 67.98652138 -105.5078125 63.390625 C-104.0236752 59.90408024 -102.04567198 57.74871428 -99.3203125 55.140625 C-96.5127174 52.44612042 -93.87015676 49.68807987 -91.33203125 46.7421875 C-79.75533268 33.40303826 -67.28467463 19.72108022 -51.5078125 11.390625 C-50.88132812 11.05933594 -50.25484375 10.72804688 -49.609375 10.38671875 C-33.81033935 2.2968511 -17.56012417 -0.24976523 0 0 Z " fill="#92BF85" transform="translate(338.5078125,483.609375)"/>
<path d="M0 0 C1.2301181 -0.00014603 2.46023621 -0.00029205 3.72763062 -0.0004425 C7.07831425 0.00013213 10.42893522 0.00512514 13.77960777 0.01213145 C17.28963407 0.01841007 20.79966133 0.01897234 24.30969238 0.02015686 C30.94638619 0.02325693 37.5830634 0.03145238 44.21974993 0.04150635 C51.7796442 0.05270872 59.3395393 0.05818831 66.89943981 0.06320179 C82.44143327 0.07363618 97.98340915 0.09141282 113.52539062 0.11352539 C113.52539062 6.71352539 113.52539062 13.31352539 113.52539062 20.11352539 C111.16996376 20.11899384 111.16996376 20.11899384 108.76695251 20.12457275 C93.92289741 20.16161508 79.07908101 20.21925493 64.23519039 20.29742813 C56.60495122 20.33709173 48.9748133 20.36954814 41.34448242 20.38452148 C34.68718366 20.39760426 28.03010886 20.42473566 21.37293631 20.46813846 C17.85403187 20.49060593 14.33540211 20.50644505 10.8164196 20.50540924 C-6.81780514 20.5057934 -22.44515984 20.69199672 -38.28710938 29.23852539 C-38.96580078 29.5852832 -39.64449219 29.93204102 -40.34375 30.28930664 C-43.0479492 31.69387578 -45.30813421 32.94705023 -47.47460938 35.11352539 C-49.30273438 35.14868164 -49.30273438 35.14868164 -51.47460938 34.11352539 C-53.2113482 31.94835265 -54.72550027 29.86805233 -56.22460938 27.55102539 C-56.63582031 26.93549805 -57.04703125 26.3199707 -57.47070312 25.68579102 C-58.48224448 24.16847898 -59.47980727 22.64186453 -60.47460938 21.11352539 C-57.47408575 13.47885972 -47.60912219 10.01545397 -40.59960938 6.86352539 C-27.32865781 1.40671965 -14.20193241 -0.04442187 0 0 Z " fill="#4D9DB7" transform="translate(339.474609375,443.886474609375)"/>
<path d="M0 0 C14.52 0 29.04 0 44 0 C48 7 48 7 48.07421875 9.9765625 C46.63758931 14.02002137 44.43459763 17.00991048 41.8125 20.375 C40.79337271 21.69722491 39.77513457 23.02013565 38.7578125 24.34375 C38.2721582 24.9728125 37.78650391 25.601875 37.28613281 26.25 C35.73542 28.36000559 34.49345166 30.60806505 33.1875 32.875 C30.51264322 36.33066758 27.53373751 37.09966219 23.3125 37.9375 C19.79629154 38.00042162 17.25854181 38.00159278 14.42871094 35.74951172 C11.18387509 32.21862081 8.73607427 28.18790682 6.2890625 24.08203125 C5.03578537 22.05779879 3.69030159 20.1757376 2.25 18.28125 C1.81792236 17.70584473 1.38584473 17.13043945 0.94067383 16.53759766 C0.52712646 15.98894043 0.1135791 15.4402832 -0.3125 14.875 C-2.61328125 11.8046875 -2.61328125 11.8046875 -4 9 C-3.35546875 6.3828125 -3.35546875 6.3828125 -2 4 C-1.34 2.68 -0.68 1.36 0 0 Z " fill="#345B65" transform="translate(593,485)"/>
<path d="M0 0 C4.17246525 0.36571409 6.5787039 0.73025615 9.828125 3.40625 C11.97411542 6.30246471 13.68404031 9.28770073 15.4375 12.4375 C16.77896369 14.50308082 18.15833395 16.53958455 19.54370117 18.57592773 C21.5392143 21.50960118 23.48607248 24.47436928 25.4375 27.4375 C23.77083333 30.77083333 22.10416667 34.10416667 20.4375 37.4375 C14.24457301 37.58581992 8.05267931 37.6947042 1.85839844 37.76708984 C-0.24855557 37.79726335 -2.35538396 37.8382083 -4.46191406 37.89013672 C-7.49054934 37.96292673 -10.5175247 37.99695024 -13.546875 38.0234375 C-14.95957672 38.06988907 -14.95957672 38.06988907 -16.40081787 38.11727905 C-18.92875132 38.11858 -21.11306904 38.06440667 -23.5625 37.4375 C-27.53731622 33.02407827 -27.53731622 33.02407827 -27.59375 29.46875 C-25.69497474 25.72873812 -23.18504587 22.44607703 -20.69018555 19.09326172 C-18.45238557 16.0785076 -16.31557827 13.09866733 -14.42578125 9.8515625 C-10.43738234 3.45493035 -7.74233608 0.60558866 0 0 Z " fill="#305B67" transform="translate(616.5625,437.5625)"/>
<path d="M0 0 C4.61573104 0.98776644 7.31319067 3.71240013 10.390625 7.10546875 C12.48554369 11.54669637 12.39550921 14.75731688 10.953125 19.41796875 C9.12765463 22.71220838 6.8606879 24.8925376 3.578125 26.79296875 C-1.32572538 27.96055217 -4.72936754 28.07672248 -9.296875 25.79296875 C-13.42648703 22.22648563 -14.8522424 19.26697846 -15.421875 13.85546875 C-14.85016138 8.61476055 -12.95257467 6.36579398 -9.359375 2.60546875 C-5.81611819 0.26558218 -4.12124792 -0.29100415 0 0 Z " fill="#F6F7F7" transform="translate(482.046875,519.58203125)"/>
<path d="M0 0 C3.26269829 1.29148474 4.5619688 2.48644618 6.8125 5.125 C8.48059796 9.16355295 8.69143192 12.69184725 8 17 C5.92993674 20.99226485 3.77928699 23.60121205 0 26 C-4.25928901 26.92034888 -8.33395459 26.95288209 -12.171875 24.7578125 C-15.80367365 21.74131858 -17.68792973 19.59018325 -18.2734375 14.73046875 C-18.45293545 10.23611625 -18.57886603 7.0168906 -15.625 3.4375 C-10.85614499 -0.99072251 -6.27993274 -0.49984993 0 0 Z " fill="#F8F9F9" transform="translate(444,402)"/>
<path d="M0 0 C3.37604652 2.04191311 6.22195185 4.44390371 8 8 C8.55258891 13.03671207 8.53929549 16.92140903 6.25 21.5 C3.5585655 24.49048278 1.61281165 25.74716649 -2.3671875 26.37109375 C-6.7346323 26.4867426 -9.98636013 26.56264275 -13.5 23.75 C-17.48892203 19.36218576 -18.51207701 16.10717279 -18.38671875 10.25390625 C-17.71615497 6.34567086 -15.87737766 4.68119282 -13 2 C-8.77685636 -0.50613657 -4.80343355 -0.95261371 0 0 Z " fill="#F8F9F9" transform="translate(480,441)"/>
<path d="M0 0 C3.85544798 1.99657127 5.59805092 3.39707638 8 7 C8.57632878 11.83517391 8.61319871 16.45086641 6.8125 21 C3.41174264 24.75255984 0.60182631 26.18341632 -4.4375 26.4375 C-8.93443607 26.28010724 -11.57408614 25.00811949 -15 22 C-17.92081171 17.37287218 -17.6511131 12.28735213 -17 7 C-12.83013031 -0.04564189 -7.6637014 -0.98924917 0 0 Z " fill="#F9FBF9" transform="translate(419,481)"/>
<path d="M0 0 C0 3 0 3 -1.37695312 4.7175293 C-2.00537109 5.33023682 -2.63378906 5.94294434 -3.28125 6.57421875 C-3.95800781 7.24130859 -4.63476562 7.90839844 -5.33203125 8.59570312 C-6.04746094 9.28599609 -6.76289063 9.97628906 -7.5 10.6875 C-8.57314453 11.7403418 -8.57314453 11.7403418 -9.66796875 12.81445312 C-11.43879577 14.54986361 -13.21623456 16.2779073 -15 18 C-15.33 17.01 -15.66 16.02 -16 15 C-10.86877855 9.74595676 -5.5930976 4.76008307 0 0 Z " fill="#86C7AD" transform="translate(273,554)"/>
<path d="M0 0 C0.66 0.33 1.32 0.66 2 1 C1.57589844 1.4125 1.15179688 1.825 0.71484375 2.25 C-3.18403638 6.08889735 -6.84961982 10.05572456 -10.421875 14.19921875 C-12.19649815 16.2242219 -14.05776935 18.13545857 -16 20 C-16.66 19.67 -17.32 19.34 -18 19 C-17.57589844 18.5875 -17.15179688 18.175 -16.71484375 17.75 C-12.81596362 13.91110265 -9.15038018 9.94427544 -5.578125 5.80078125 C-3.80350185 3.7757781 -1.94223065 1.86454143 0 0 Z " fill="#E0E9ED" transform="translate(277,442)"/>
<path d="M0 0 C0.598125 0.763125 1.19625 1.52625 1.8125 2.3125 C3.7956904 4.89777755 3.7956904 4.89777755 5.625 6.4375 C7.60329233 8.68555946 8.17904346 11.15822737 9 14 C5.19364503 10.79239749 1.45436433 7.59253891 -2 4 C-1.34 2.68 -0.68 1.36 0 0 Z " fill="#379DD0" transform="translate(205,490)"/>
<path d="M0 0 C0.33 0.99 0.66 1.98 1 3 C-2.3 5.97 -5.6 8.94 -9 12 C-9 9 -9 9 -7.03125 6.73828125 C-5.77828125 5.53751953 -5.77828125 5.53751953 -4.5 4.3125 C-3.6646875 3.50425781 -2.829375 2.69601562 -1.96875 1.86328125 C-1.3190625 1.24839844 -0.669375 0.63351562 0 0 Z " fill="#95D1B9" transform="translate(256,570)"/>
<path d="M0 0 C1.33998047 0.06960938 1.33998047 0.06960938 2.70703125 0.140625 C3.60808594 0.17671875 4.50914062 0.2128125 5.4375 0.25 C6.46810547 0.31960938 6.46810547 0.31960938 7.51953125 0.390625 C7.51953125 0.720625 7.51953125 1.050625 7.51953125 1.390625 C6.44703125 1.49375 5.37453125 1.596875 4.26953125 1.703125 C0.66132253 2.36462993 -0.84441898 2.96545921 -3.48046875 5.390625 C-4.14046875 5.060625 -4.80046875 4.730625 -5.48046875 4.390625 C-3.17521711 0.50003419 -3.17521711 0.50003419 0 0 Z " fill="#405E64" transform="translate(652.48046875,499.609375)"/>
<path d="M0 0 C-1.15173355 2.46800047 -2.04783565 4.04783565 -4 6 C-4.99 5.67 -5.98 5.34 -7 5 C-2.25 0 -2.25 0 0 0 Z " fill="#D69948" transform="translate(606,403)"/>
</svg>
